<svg width="176" height="40" viewBox="0 0 176 40" fill="none" xmlns="http://www.w3.org/2000/svg">
<g clip-path="url(#clip0_733_14723)">
<path d="M8.02125 27.4575C8.55833 27.4575 9.09542 27.4226 9.6325 27.3527C10.1696 27.2595 10.6483 27.1081 11.0686 26.8984C11.4889 26.6888 11.8275 26.3976 12.0844 26.0249C12.3646 25.6289 12.5047 25.128 12.5047 24.5224C12.5047 24.0565 12.3763 23.6605 12.1194 23.3343C11.8626 22.9849 11.5357 22.6704 11.1387 22.3909C10.7417 22.1114 10.298 21.8551 9.80764 21.6222C9.31726 21.3892 8.82687 21.133 8.33649 20.8534C7.706 20.4807 7.11054 20.0847 6.5501 19.6654C5.98966 19.2461 5.51096 18.7802 5.11398 18.2677C4.71701 17.7319 4.40176 17.1496 4.16825 16.5206C3.93473 15.8684 3.81797 15.1229 3.81797 14.2843C3.81797 13.2128 4.01646 12.2227 4.41344 11.3142C4.83377 10.3824 5.4409 9.57878 6.23486 8.90323C7.05216 8.22768 8.06795 7.70355 9.28223 7.33083C10.4965 6.93482 11.921 6.73682 13.5556 6.73682C14.3028 6.73682 15.0267 6.8067 15.7272 6.94647C16.4278 7.06294 17.0816 7.21436 17.6888 7.40072C18.2959 7.58708 18.8447 7.80838 19.3351 8.06462C19.8488 8.29757 20.2808 8.53051 20.6311 8.76346L18.3543 12.7818C17.7705 12.3392 17.0583 11.9665 16.2176 11.6637C15.377 11.3608 14.4663 11.2094 13.4855 11.2094C12.9484 11.2094 12.4347 11.256 11.9443 11.3492C11.4539 11.4424 11.0219 11.6054 10.6483 11.8384C10.2747 12.048 9.9711 12.3276 9.73758 12.677C9.52742 13.0264 9.42234 13.4574 9.42234 13.9698C9.42234 14.4357 9.50407 14.8317 9.66753 15.1579C9.85434 15.4607 10.0879 15.7286 10.3681 15.9615C10.6483 16.1945 10.9752 16.4041 11.3488 16.5905C11.7225 16.7769 12.1194 16.9749 12.5398 17.1845C13.2637 17.5572 13.9642 17.9532 14.6414 18.3725C15.3186 18.7919 15.9141 19.281 16.4278 19.8401C16.9415 20.3759 17.3502 20.9932 17.6537 21.692C17.9573 22.3909 18.1091 23.2179 18.1091 24.1729C18.1091 25.5007 17.8639 26.6538 17.3735 27.6322C16.8832 28.6106 16.1943 29.4259 15.3069 30.0782C14.4196 30.7304 13.3571 31.208 12.1194 31.5108C10.9052 31.8369 9.55077 32 8.05627 32C7.07551 32 6.15313 31.9184 5.28912 31.7554C4.44846 31.5923 3.67786 31.406 2.97732 31.1963C2.30012 30.9634 1.70466 30.7188 1.19093 30.4625C0.700546 30.2063 0.30357 29.9733 0 29.7637L2.3118 25.6056C2.59202 25.7919 2.93062 25.9899 3.32759 26.1996C3.72457 26.4092 4.16825 26.6072 4.65863 26.7936C5.17236 26.98 5.70945 27.143 6.26988 27.2828C6.83032 27.3993 7.41411 27.4575 8.02125 27.4575Z" fill="#1B1E22"/>
<path d="M28.2528 32C27.0152 32 25.941 31.8136 25.0303 31.4409C24.1196 31.0682 23.3606 30.5441 22.7535 29.8685C22.1697 29.193 21.726 28.4009 21.4225 27.4924C21.1189 26.5607 20.9671 25.5357 20.9671 24.4175C20.9671 23.0198 21.1889 21.6222 21.6326 20.2245C22.0997 18.8268 22.7769 17.5689 23.6642 16.4507C24.5516 15.3326 25.6374 14.4241 26.9218 13.7252C28.2061 13.0031 29.6772 12.642 31.3352 12.642C32.5495 12.642 33.612 12.8284 34.5227 13.2011C35.4567 13.5738 36.2157 14.098 36.7994 14.7735C37.4066 15.4491 37.8619 16.2527 38.1655 17.1845C38.4691 18.093 38.6209 19.1063 38.6209 20.2245C38.6209 21.6222 38.399 23.0198 37.9553 24.4175C37.5117 25.8152 36.8578 27.0731 35.9938 28.1913C35.1298 29.3094 34.044 30.2296 32.7363 30.9517C31.4519 31.6506 29.9574 32 28.2528 32ZM30.8448 17.0447C30.0742 17.0447 29.397 17.266 28.8132 17.7086C28.2294 18.1512 27.7391 18.7103 27.3421 19.3859C26.9451 20.0614 26.6415 20.8068 26.4314 21.6222C26.2446 22.4142 26.1511 23.1713 26.1511 23.8934C26.1511 25.0814 26.338 26.0016 26.7116 26.6538C27.0852 27.2828 27.7624 27.5973 28.7432 27.5973C29.5138 27.5973 30.191 27.376 30.7748 26.9334C31.3585 26.4908 31.8489 25.9317 32.2459 25.2561C32.6429 24.5806 32.9348 23.8468 33.1216 23.0548C33.3317 22.2395 33.4368 21.4707 33.4368 20.7486C33.4368 19.5606 33.25 18.6521 32.8764 18.0231C32.5028 17.3709 31.8256 17.0447 30.8448 17.0447Z" fill="#1B1E22"/>
<path d="M43.5756 31.5108C42.9684 29.1813 42.4197 26.4675 41.9293 23.3693C41.4389 20.2478 41.1003 16.8351 40.9135 13.1312H46.3077C46.3311 14.0397 46.3661 15.0414 46.4128 16.1363C46.4595 17.2078 46.5179 18.291 46.5879 19.3859C46.658 20.4807 46.7397 21.5523 46.8331 22.6005C46.9265 23.6255 47.0316 24.5573 47.1484 25.3959C47.6621 24.6971 48.2342 23.8352 48.8647 22.8102C49.5185 21.7852 50.149 20.7137 50.7562 19.5955C51.3633 18.4774 51.9237 17.3592 52.4375 16.2411C52.9512 15.0996 53.3482 14.063 53.6284 13.1312H59.1627C58.5556 14.7852 57.7966 16.4857 56.8859 18.2328C55.9986 19.9799 55.0412 21.6688 54.0137 23.2994C52.9862 24.93 51.9354 26.4558 50.8613 27.8768C49.8104 29.2978 48.8297 30.5091 47.919 31.5108H43.5756Z" fill="#1B1E22"/>
<path d="M61.6461 13.9698C62.0431 13.8534 62.4634 13.7252 62.9071 13.5855C63.3741 13.4224 63.8878 13.2826 64.4483 13.1662C65.0321 13.0264 65.6742 12.9216 66.3748 12.8517C67.0987 12.7585 67.9277 12.7119 68.8617 12.7119C69.9826 12.7119 70.905 12.8517 71.6289 13.1312C72.3761 13.4108 73.0533 13.8301 73.6605 14.3891C74.5245 13.9 75.3768 13.5039 76.2174 13.2011C77.0815 12.875 78.0856 12.7119 79.2298 12.7119C80.3273 12.7119 81.2614 12.8633 82.032 13.1662C82.8259 13.4457 83.4798 13.865 83.9935 14.4241C84.5072 14.9599 84.8809 15.6121 85.1144 16.3808C85.3479 17.1263 85.4647 17.9532 85.4647 18.8617C85.4647 19.281 85.4296 19.7236 85.3596 20.1895C85.3129 20.6554 85.2311 21.1213 85.1144 21.5872L82.7325 31.5108H77.5135L79.8253 21.7969C79.8953 21.4707 79.9654 21.1097 80.0354 20.7137C80.1288 20.2944 80.1755 19.8867 80.1755 19.4907C80.1755 18.8384 80.0237 18.2794 79.7202 17.8135C79.4166 17.3243 78.8211 17.0797 77.9338 17.0797C77.4434 17.0797 76.9764 17.1729 76.5327 17.3592C76.089 17.5223 75.692 17.697 75.3418 17.8834C75.3885 18.0697 75.4118 18.2444 75.4118 18.4075C75.4118 18.5706 75.4118 18.722 75.4118 18.8617C75.4118 19.281 75.3768 19.7236 75.3067 20.1895C75.26 20.6554 75.1783 21.1213 75.0615 21.5872L72.6797 31.5108H67.4606L69.7724 21.7969C69.8425 21.4707 69.9125 21.1097 69.9826 20.7137C70.076 20.2944 70.1227 19.8867 70.1227 19.4907C70.1227 18.8384 69.9709 18.2794 69.6673 17.8135C69.3638 17.3243 68.7683 17.0797 67.881 17.0797C67.5073 17.0797 67.1921 17.103 66.9352 17.1496C66.6783 17.1729 66.3748 17.2195 66.0245 17.2893L62.6269 31.5108H57.4078L61.6461 13.9698Z" fill="#1B1E22"/>
<path d="M87.3807 24.3127C87.3807 22.8218 87.6376 21.3776 88.1513 19.9799C88.6884 18.5822 89.4357 17.3476 90.3931 16.276C91.3505 15.1812 92.5064 14.3076 93.8608 13.6554C95.2385 12.9798 96.7564 12.642 98.4143 12.642C99.2316 12.642 99.9906 12.7585 100.691 12.9915C101.392 13.2244 101.999 13.5622 102.513 14.0048C103.05 14.4474 103.458 14.9948 103.738 15.6471C104.042 16.276 104.194 16.9982 104.194 17.8135C104.194 19.118 103.902 20.2245 103.318 21.133C102.734 22.0415 101.917 22.7869 100.866 23.3693C99.8388 23.9283 98.6128 24.336 97.1884 24.5922C95.7639 24.8485 94.2111 24.9766 92.5298 24.9766C92.6932 25.955 93.0435 26.6538 93.5806 27.0731C94.141 27.4691 95.0167 27.6672 96.2076 27.6672C96.9549 27.6672 97.7138 27.6089 98.4844 27.4924C99.255 27.3527 99.9789 27.1547 100.656 26.8984L101.041 30.9867C100.388 31.2429 99.5469 31.4758 98.5194 31.6855C97.5153 31.8951 96.4178 32 95.2269 32C93.7791 32 92.5531 31.802 91.549 31.406C90.5682 30.9867 89.7626 30.4276 89.1321 29.7287C88.525 29.0299 88.0813 28.2146 87.8011 27.2828C87.5209 26.351 87.3807 25.361 87.3807 24.3127ZM97.5737 16.7652C96.3828 16.7652 95.3319 17.1962 94.4212 18.0581C93.5339 18.8967 92.9501 20.0148 92.6699 21.4125C94.1177 21.3659 95.2852 21.2494 96.1726 21.0631C97.06 20.8534 97.7488 20.6088 98.2392 20.3293C98.7296 20.0498 99.0565 19.7469 99.22 19.4208C99.3834 19.0947 99.4652 18.7686 99.4652 18.4424C99.4652 17.3243 98.8347 16.7652 97.5737 16.7652Z" fill="#1B1E22"/>
<path d="M110.193 27.8069C111.384 27.8069 112.201 27.6439 112.645 27.3177C113.089 26.9683 113.311 26.5956 113.311 26.1996C113.311 25.9433 113.264 25.722 113.17 25.5357C113.1 25.3493 112.972 25.1746 112.785 25.0116C112.598 24.8485 112.341 24.6854 112.015 24.5224C111.688 24.336 111.267 24.1264 110.754 23.8934C110.17 23.6372 109.621 23.3693 109.107 23.0897C108.594 22.7869 108.138 22.4375 107.741 22.0415C107.368 21.6222 107.064 21.1563 106.83 20.6438C106.62 20.108 106.515 19.479 106.515 18.7569C106.515 16.87 107.204 15.3792 108.582 14.2843C109.983 13.1895 112.015 12.642 114.677 12.642C115.938 12.642 117.058 12.7818 118.039 13.0613C119.02 13.3409 119.814 13.6437 120.421 13.9698L118.635 17.8484C118.144 17.5922 117.514 17.3476 116.743 17.1146C115.973 16.8817 115.214 16.7652 114.466 16.7652C114.139 16.7652 113.813 16.7885 113.486 16.8351C113.182 16.8584 112.89 16.9283 112.61 17.0447C112.353 17.1612 112.143 17.3243 111.979 17.5339C111.816 17.7436 111.734 18.0231 111.734 18.3725C111.734 18.8384 111.909 19.1879 112.26 19.4208C112.633 19.6538 113.147 19.9333 113.801 20.2594C114.712 20.702 115.471 21.1097 116.078 21.4824C116.685 21.8551 117.164 22.2511 117.514 22.6704C117.887 23.0897 118.156 23.5673 118.319 24.1031C118.483 24.6388 118.565 25.2678 118.565 25.9899C118.565 26.7354 118.401 27.4691 118.074 28.1913C117.771 28.9134 117.28 29.554 116.603 30.1131C115.926 30.6722 115.062 31.1264 114.011 31.4758C112.96 31.8253 111.699 32 110.228 32C109.317 32 108.488 31.9417 107.741 31.8253C107.017 31.7088 106.375 31.569 105.815 31.406C105.254 31.2196 104.776 31.0332 104.379 30.8469C104.005 30.6605 103.713 30.5091 103.503 30.3926L105.289 26.4092C105.686 26.6422 106.305 26.9334 107.146 27.2828C107.986 27.6322 109.002 27.8069 110.193 27.8069Z" fill="#1B1E22"/>
<rect x="125.263" width="50.7368" height="17.7368" rx="5" fill="#32D74B"/>
<path d="M135.129 2.99342V14.3684H132.793V2.99342H135.129ZM138.629 2.99342V4.82936H129.348V2.99342H138.629ZM147.438 12.5403V14.3684H141.383V12.5403H147.438ZM142.149 2.99342V14.3684H139.805V2.99342H142.149ZM146.649 7.62623V9.40748H141.383V7.62623H146.649ZM147.43 2.99342V4.82936H141.383V2.99342H147.43ZM153.27 4.93873L150.176 14.3684H147.684L151.911 2.99342H153.497L153.27 4.93873ZM155.841 14.3684L152.739 4.93873L152.489 2.99342H154.091L158.341 14.3684H155.841ZM155.7 10.134V11.97H149.692V10.134H155.7ZM160.306 2.99342H162.29L165.212 11.345L168.134 2.99342H170.118L166.009 14.3684H164.415L160.306 2.99342ZM159.235 2.99342H161.212L161.571 11.134V14.3684H159.235V2.99342ZM169.212 2.99342H171.196V14.3684H168.852V11.134L169.212 2.99342Z" fill="white"/>
</g>
<defs>
<clipPath id="clip0_733_14723">
<rect width="176" height="32" fill="white"/>
</clipPath>
</defs>
</svg>
