<svg width="25" height="24" viewBox="0 0 25 24" fill="none" xmlns="http://www.w3.org/2000/svg">
<path opacity="0.6" d="M12.5088 12.5859C12.1396 12.5859 11.7969 12.4102 11.4014 12.0234L3.70215 4.38574C4.00977 4.0957 4.5459 3.95508 5.30176 3.95508H19.4697C20.3311 3.95508 20.9375 4.11328 21.2803 4.41211L13.6162 12.0234C13.2207 12.4102 12.8867 12.5859 12.5088 12.5859ZM2.87598 17.8945C2.71777 17.6221 2.63867 17.165 2.63867 16.5234V6.81152C2.63867 6.16113 2.72656 5.69531 2.88477 5.42285L9.17773 11.6367L2.87598 17.8945ZM22.1328 17.877L15.8398 11.6367L22.1152 5.44043C22.2734 5.71289 22.3525 6.16992 22.3525 6.81152V16.5234C22.3525 17.1562 22.2822 17.6045 22.1328 17.877ZM5.52148 19.3711C4.66016 19.3711 4.05371 19.2217 3.71094 18.9229L10.1182 12.5596L10.6631 13.1045C11.2783 13.6934 11.8584 13.9658 12.5088 13.9658C13.1592 13.9658 13.7393 13.6934 14.3457 13.1045L14.8994 12.5596L21.3242 18.9316C21.0078 19.2217 20.4629 19.3711 19.6982 19.3711H5.52148Z" fill="#B9B9CE"/>
</svg>
