<svg width="25" height="24" viewBox="0 0 25 24" fill="none" xmlns="http://www.w3.org/2000/svg">
<path opacity="0.6" d="M8.76465 15.6885C6.17188 13.0957 4.20312 9.98438 4.20312 7.41797C4.20312 6.27539 4.58984 5.25586 5.45996 4.42969C5.9873 3.92871 6.58496 3.66504 7.17383 3.66504C7.6748 3.66504 8.14062 3.8584 8.45703 4.30664L10.3555 6.97852C10.6631 7.40918 10.8037 7.76074 10.8037 8.07715C10.8037 8.49023 10.5664 8.85059 10.1621 9.26367L9.53809 9.90527C9.43262 10.002 9.39746 10.125 9.39746 10.2393C9.39746 10.3711 9.4502 10.5029 9.50293 10.5996C9.79297 11.1533 10.6104 12.0938 11.4805 12.9727C12.3594 13.8428 13.3086 14.6602 13.8535 14.959C13.9502 15.0029 14.082 15.0557 14.2227 15.0557C14.3369 15.0557 14.46 15.0205 14.5566 14.9238L15.1982 14.291C15.6025 13.8867 15.9629 13.6582 16.376 13.6582C16.6924 13.6582 17.0527 13.7988 17.4746 14.0977L20.1729 16.0137C20.6211 16.3301 20.7969 16.7783 20.7969 17.2441C20.7969 17.8506 20.5068 18.457 20.041 18.9844C19.2324 19.8809 18.2217 20.2764 17.0703 20.2764C14.5039 20.2764 11.3574 18.2812 8.76465 15.6885Z" fill="#B9B9CE"/>
</svg>
