<svg width="25" height="24" viewBox="0 0 25 24" fill="none" xmlns="http://www.w3.org/2000/svg">
<path d="M2.50014 11.0584C8.48353 8.27648 12.4724 6.44231 14.4669 5.55619C20.1681 3.02586 21.3512 2.5864 22.124 2.57168C22.294 2.5686 22.6723 2.61343 22.9192 2.82666C23.1245 3.00635 23.1822 3.24935 23.2111 3.4198C23.2367 3.59025 23.272 3.97871 23.2432 4.28196C22.9354 7.74564 21.5982 16.1509 20.9184 20.0304C20.6331 21.672 20.0655 22.2223 19.5172 22.2761C18.3243 22.3931 17.42 21.4355 16.2657 20.628C14.4604 19.364 13.4408 18.5775 11.6868 17.3443C9.6603 15.9192 10.9749 15.1357 12.1293 13.8557C12.4307 13.5206 17.683 8.42263 17.7824 7.96023C17.7952 7.90239 17.8081 7.68677 17.6862 7.57314C17.5676 7.45916 17.3911 7.49818 17.2629 7.52898C17.0801 7.57279 14.1974 9.60856 8.60524 13.6359C7.78757 14.2363 7.04688 14.5289 6.37992 14.5135C5.64883 14.4967 4.23805 14.0713 3.18952 13.7078C1.9069 13.2619 0.883969 13.026 0.973752 12.2686C1.01864 11.8743 1.52856 11.4708 2.50014 11.0584Z" fill="#2AABEE"/>
</svg>
