<svg width="25" height="24" viewBox="0 0 25 24" fill="none" xmlns="http://www.w3.org/2000/svg">
<path fill-rule="evenodd" clip-rule="evenodd" d="M23.7227 11.6129C23.7227 18.0265 18.5234 23.2258 12.1098 23.2258C10.1729 23.2258 8.34674 22.7515 6.74107 21.9129L2.04527 24L3.1548 19.0072C1.4945 16.9987 0.496887 14.4223 0.496887 11.6129C0.496887 5.19927 5.69615 0 12.1098 0C18.5234 0 23.7227 5.19927 23.7227 11.6129ZM18.2232 16.9855C18.6165 16.7111 18.9475 16.3578 19.1947 15.9484V15.8922C19.3631 15.4241 19.4085 14.9211 19.3267 14.4305C19.2504 14.3091 19.0997 14.2369 18.8647 14.1243C18.8095 14.0978 18.7497 14.0692 18.6851 14.0371C18.3455 13.8683 16.6661 13.0625 16.3642 12.9501C16.0623 12.8377 15.8359 12.7815 15.6094 13.1187C15.383 13.4561 14.7225 14.2806 14.5339 14.4305C14.3451 14.5804 14.1376 14.5991 13.7979 14.4305C12.8032 14.032 11.8844 13.468 11.0806 12.7628C10.3427 12.0821 9.70707 11.2995 9.19378 10.4391C9.00505 10.1017 9.19375 9.91437 9.34471 9.76449L9.34475 9.76446C9.46035 9.64957 9.59824 9.47955 9.73282 9.31361C9.77382 9.26306 9.81451 9.21289 9.85417 9.16477C9.99584 8.99584 10.1104 8.80632 10.1939 8.60255C10.2402 8.51274 10.2643 8.41318 10.2643 8.31223C10.2643 8.21112 10.2402 8.11156 10.1939 8.02175C10.1461 7.93641 9.94401 7.44866 9.7217 6.91217C9.50435 6.38765 9.2677 5.81654 9.13711 5.52936C8.87296 4.94845 8.58991 4.94845 8.38227 4.94845H7.85398C7.68235 4.9504 7.51307 4.98812 7.35705 5.05913C7.20102 5.13014 7.06176 5.23289 6.94823 5.36071C6.56281 5.72037 6.25782 6.15646 6.05302 6.6407C5.84823 7.12493 5.7482 7.64651 5.75944 8.17163C5.86924 9.43574 6.34795 10.6405 7.13692 11.6383C8.58883 13.7923 10.5782 15.5356 12.911 16.698C13.5251 16.9727 14.1553 17.2105 14.798 17.4101C15.4812 17.6242 16.2067 17.6691 16.9114 17.5412C17.383 17.4493 17.8299 17.2599 18.2232 16.9855Z" fill="#25D366"/>
</svg>
